<svg width="596" height="180" viewBox="0 0 596 180" fill="none" xmlns="http://www.w3.org/2000/svg">
<g clip-path="url(#clip0_267_2710)">
<g opacity="0.52">
<path d="M501.27 172.45C501.292 174.325 500.607 176.139 499.35 177.53C498.817 178.215 498.135 178.77 497.355 179.152C496.575 179.533 495.718 179.731 494.85 179.731C493.982 179.731 493.125 179.533 492.345 179.152C491.566 178.77 490.883 178.215 490.35 177.53C489.094 176.139 488.408 174.325 488.43 172.45V46.57C488.408 44.6954 489.094 42.8814 490.35 41.49C490.883 40.8046 491.566 40.2499 492.345 39.8684C493.125 39.4869 493.982 39.2886 494.85 39.2886C495.718 39.2886 496.575 39.4869 497.355 39.8684C498.135 40.2499 498.817 40.8046 499.35 41.49C500.607 42.8814 501.292 44.6954 501.27 46.57V172.45Z" fill="white"/>
</g>
<path d="M98 137.67C97.9594 139.381 97.2615 141.011 96.0512 142.221C94.8409 143.431 93.2111 144.129 91.5 144.17H6.5C5.6571 144.166 4.82381 143.991 4.0504 143.656C3.27698 143.32 2.57949 142.832 2 142.22C1.37271 141.639 0.871488 140.935 0.527445 140.153C0.183401 139.37 0.00387323 138.525 0 137.67L0 6.39C0.0185472 5.56093 0.205396 4.74428 0.549201 3.98962C0.893006 3.23497 1.38659 2.55806 2 2C2.57518 1.37881 3.27074 0.881151 4.04436 0.53732C4.81799 0.193489 5.65348 0.010673 6.5 0L91.5 0C92.355 0.00387323 93.2 0.183401 93.9827 0.527445C94.7654 0.871488 95.4691 1.37271 96.05 2C96.6695 2.56381 97.1666 3.24879 97.5106 4.01251C97.8546 4.77624 98.0382 5.60245 98.05 6.44C98.0461 7.29497 97.8666 8.14002 97.5226 8.92272C97.1785 9.70542 96.6773 10.4091 96.05 10.99C95.4691 11.6173 94.7654 12.1185 93.9827 12.4626C93.2 12.8066 92.355 12.9861 91.5 12.99H13V65.64H73.11C73.9397 65.6424 74.7605 65.8119 75.5233 66.1383C76.2861 66.4648 76.9754 66.9415 77.55 67.54C78.1815 68.1048 78.6862 68.7969 79.0309 69.5708C79.3756 70.3447 79.5525 71.1828 79.55 72.03C79.5461 72.885 79.3666 73.73 79.0226 74.5127C78.6785 75.2954 78.1773 75.9991 77.55 76.58C76.9862 77.1995 76.3012 77.6966 75.5375 78.0406C74.7738 78.3846 73.9475 78.5682 73.11 78.58H13V131.22H91.53C93.2411 131.261 94.8709 131.959 96.0812 133.169C97.2915 134.379 97.9894 136.009 98.03 137.72L98 137.67Z" fill="white"/>
<path d="M210.45 137.67C210.41 139.381 209.712 141.011 208.502 142.221C207.291 143.432 205.661 144.129 203.95 144.17C203.031 144.207 202.117 144.019 201.287 143.621C200.458 143.224 199.738 142.629 199.19 141.89L148.71 81.89L98.4504 141.89C97.8588 142.641 97.0964 143.239 96.2267 143.636C95.357 144.033 94.4051 144.216 93.4504 144.17C89.2637 144.17 87.1704 142.003 87.1704 137.67C87.1529 136.212 87.6525 134.795 88.5804 133.67L140.37 72L88.6004 10.51C87.6587 9.34623 87.1592 7.88675 87.1904 6.39002C87.1904 2.13002 89.2837 1.6971e-05 93.4704 1.6971e-05C94.4144 -0.0461115 95.3564 0.125617 96.2234 0.501909C97.0905 0.878201 97.8593 1.44896 98.4704 2.17002L148.73 62.28L199.19 2.17002C199.771 1.46216 200.507 0.897998 201.341 0.521577C202.176 0.145155 203.086 -0.0333423 204 1.6971e-05C204.855 0.00329464 205.701 0.182554 206.483 0.526635C207.266 0.870716 207.97 1.37225 208.55 2.00002C209.161 2.5682 209.649 3.25512 209.984 4.01864C210.319 4.78215 210.495 5.60613 210.5 6.44002C210.475 8.02685 209.903 9.55633 208.88 10.77L157.27 72L208.83 133.42C209.824 134.62 210.393 136.114 210.45 137.67Z" fill="white"/>
<path d="M339.22 137.67C339.216 138.525 339.036 139.37 338.692 140.153C338.348 140.935 337.847 141.639 337.22 142.22C336.669 142.823 336.001 143.306 335.256 143.642C334.511 143.977 333.706 144.157 332.89 144.17C331.534 144.272 330.182 143.924 329.045 143.179C327.907 142.434 327.048 141.334 326.6 140.05L313.28 107.23H245.28L232 140.05C231.555 141.334 230.698 142.435 229.562 143.18C228.426 143.925 227.075 144.274 225.72 144.17C224.903 144.157 224.098 143.977 223.354 143.642C222.609 143.306 221.941 142.823 221.39 142.22C220.763 141.639 220.261 140.935 219.917 140.153C219.573 139.37 219.394 138.525 219.39 137.67C219.351 136.854 219.498 136.041 219.82 135.29L273 5.2C274.4 1.73333 276.507 0 279.32 0C282.06 0 284.16 1.73 285.6 5.2L338.89 135.29C339.128 136.06 339.239 136.864 339.22 137.67ZM308 94.24L279.3 23.61L250.73 94.24H308Z" fill="white"/>
<path d="M458.93 118.5C458.93 121.6 455.68 125.353 449.18 129.76C434.947 139.373 420.577 144.177 406.07 144.17C386.363 144.17 369.43 137.093 355.27 122.94C341.11 108.787 334.02 91.8067 334 72.0001C334 52.2934 341.077 35.3601 355.23 21.2001C369.383 7.04008 386.33 -0.0265915 406.07 7.5188e-05C420.577 7.5188e-05 434.947 4.80341 449.18 14.4101C455.68 18.8767 458.93 22.6301 458.93 25.6701C458.935 26.5172 458.769 27.3566 458.443 28.1383C458.116 28.9201 457.636 29.628 457.03 30.2201C456.465 30.8515 455.773 31.3562 454.999 31.701C454.225 32.0457 453.387 32.2226 452.54 32.2201C450.8 32.2201 448.887 31.2801 446.8 29.4001C445.927 28.6801 445.077 27.9601 444.25 27.2401C443.42 26.5201 442.61 25.7601 441.81 24.9601C432.277 16.9601 420.363 12.9601 406.07 12.9601C389.97 12.9601 376.07 18.8101 364.37 30.5101C352.67 42.2101 346.857 56.0401 346.93 72.0001C346.93 88.1801 352.743 102.08 364.37 113.7C376.137 125.333 390.037 131.147 406.07 131.14C420.29 131.14 432.203 127.17 441.81 119.23C442.61 118.5 443.46 117.71 444.36 116.84C445.26 115.97 446.16 115.18 447.07 114.46C447.924 113.768 448.85 113.168 449.83 112.67C451.003 112.063 452.345 111.864 453.643 112.105C454.942 112.346 456.123 113.013 457 114C457.605 114.584 458.088 115.282 458.419 116.055C458.751 116.828 458.924 117.659 458.93 118.5Z" fill="white"/>
<path d="M595.84 6.39C595.836 7.24497 595.657 8.09002 595.313 8.87272C594.969 9.65542 594.467 10.3591 593.84 10.94C593.259 11.5673 592.556 12.0685 591.773 12.4126C590.99 12.7566 590.145 12.9361 589.29 12.94H539.41V137.67C539.369 139.381 538.672 141.011 537.461 142.221C536.251 143.431 534.621 144.129 532.91 144.17C532.076 144.166 531.252 143.991 530.488 143.655C529.724 143.32 529.038 142.831 528.47 142.22C527.843 141.639 527.342 140.935 526.998 140.153C526.654 139.37 526.474 138.525 526.47 137.67V12.89H476.58C475.725 12.8861 474.88 12.7066 474.097 12.3626C473.315 12.0185 472.611 11.5173 472.03 10.89C471.412 10.3047 470.92 9.59913 470.585 8.81664C470.249 8.03415 470.078 7.19132 470.08 6.34C470.095 5.5252 470.273 4.72159 470.602 3.97632C470.932 3.23105 471.407 2.55914 472 2C472.584 1.36901 473.293 0.865632 474.081 0.52146C474.869 0.177288 475.72 -0.000246518 476.58 2.56912e-07H589.34C590.195 0.00387348 591.04 0.183402 591.823 0.527445C592.606 0.871489 593.309 1.37271 593.89 2C594.494 2.5624 594.979 3.24124 595.314 3.99569C595.649 4.75013 595.828 5.56457 595.84 6.39Z" fill="white"/>
<path d="M2 163.73V179.45H0V163.73H2Z" fill="white"/>
<path d="M17.8904 165.46H13.1104V163.73H24.7504V165.46H19.9404V179.46H17.8904V165.46Z" fill="white"/>
<path d="M63.5397 171.43C63.5397 176.83 60.2497 179.7 56.2397 179.7C52.2297 179.7 49.1797 176.48 49.1797 171.7C49.1797 166.7 52.2797 163.44 56.4797 163.44C60.6797 163.44 63.5397 166.76 63.5397 171.43ZM51.3497 171.68C51.3497 175.04 53.1597 178.05 56.3497 178.05C59.5397 178.05 61.3497 175.05 61.3497 171.52C61.3497 168.39 59.7097 165.13 56.3497 165.13C52.9897 165.13 51.3497 168.23 51.3497 171.68Z" fill="white"/>
<path d="M77.5396 163.73V173C77.5396 176.53 79.1096 178 81.1996 178C83.5396 178 85.0296 176.46 85.0296 173V163.7H87.0296V172.86C87.0296 177.69 84.4896 179.67 81.0296 179.67C77.8196 179.67 75.3896 177.83 75.3896 172.96V163.7L77.5396 163.73Z" fill="white"/>
<path d="M102.93 165.46H98.1504V163.73H109.78V165.46H105V179.46H103L102.93 165.46Z" fill="white"/>
<path d="M120.45 177C121.548 177.653 122.802 177.998 124.08 178C126.16 178 127.37 176.9 127.37 175.32C127.37 173.74 126.53 173.01 124.37 172.19C121.8 171.29 120.22 169.96 120.22 167.74C120.22 165.29 122.22 163.47 125.3 163.47C126.506 163.433 127.702 163.698 128.78 164.24L128.22 165.9C127.298 165.405 126.267 165.148 125.22 165.15C123.08 165.15 122.22 166.44 122.22 167.51C122.22 168.98 123.22 169.7 125.35 170.51C128 171.51 129.35 172.82 129.35 175.13C129.35 177.44 127.55 179.65 123.84 179.65C122.443 179.666 121.065 179.322 119.84 178.65L120.45 177Z" fill="white"/>
<path d="M155 171.43C155 176.83 151.71 179.7 147.7 179.7C143.69 179.7 140.64 176.48 140.64 171.7C140.64 166.7 143.74 163.44 147.93 163.44C152.12 163.44 155 166.76 155 171.43ZM142.8 171.68C142.8 175.04 144.62 178.05 147.8 178.05C150.98 178.05 152.8 175.05 152.8 171.52C152.8 168.39 151.17 165.13 147.8 165.13C144.43 165.13 142.79 168.23 142.79 171.68H142.8Z" fill="white"/>
<path d="M169 163.73V173C169 176.53 170.56 178 172.66 178C174.99 178 176.49 176.46 176.49 173V163.7H178.54V172.86C178.54 177.69 176 179.67 172.59 179.67C169.37 179.67 166.95 177.83 166.95 172.96V163.7L169 163.73Z" fill="white"/>
<path d="M191.39 163.94C192.673 163.71 193.976 163.599 195.28 163.61C197.45 163.61 198.85 164.01 199.83 164.9C200.239 165.283 200.561 165.748 200.775 166.266C200.989 166.783 201.089 167.341 201.07 167.9C201.077 168.804 200.788 169.684 200.246 170.407C199.704 171.13 198.939 171.655 198.07 171.9V172C199.29 172.42 200.01 173.54 200.38 175.17C200.656 176.643 201.061 178.088 201.59 179.49H199.5C199.028 178.274 198.677 177.015 198.45 175.73C197.98 173.56 197.14 172.73 195.3 172.68H193.39V179.49H191.39V163.94ZM193.39 171.1H195.46C197.63 171.1 199.01 169.91 199.01 168.1C199.01 166.1 197.54 165.19 195.39 165.17C194.718 165.151 194.047 165.212 193.39 165.35V171.1Z" fill="white"/>
<path d="M224.32 178.93C223.007 179.475 221.592 179.73 220.17 179.68C215.74 179.68 212.41 176.88 212.41 171.68C212.347 170.583 212.516 169.485 212.905 168.458C213.295 167.43 213.896 166.496 214.671 165.717C215.446 164.938 216.376 164.33 217.401 163.934C218.426 163.539 219.523 163.363 220.62 163.42C221.901 163.368 223.176 163.607 224.35 164.12L223.86 165.78C222.864 165.334 221.782 165.112 220.69 165.13C217 165.13 214.55 167.48 214.55 171.61C214.55 175.46 216.77 177.93 220.55 177.93C221.688 177.948 222.817 177.723 223.86 177.27L224.32 178.93Z" fill="white"/>
<path d="M238.23 163.73V179.45H236.23V163.73H238.23Z" fill="white"/>
<path d="M251.11 179.45V163.73H253.33L258.33 171.73C259.386 173.367 260.328 175.074 261.15 176.84H261.2C261.01 174.75 260.97 172.84 260.97 170.39V163.81H262.88V179.53H260.83L255.83 171.53C254.744 169.845 253.762 168.095 252.89 166.29H252.82C252.94 168.29 252.98 170.16 252.98 172.77V179.49L251.11 179.45Z" fill="white"/>
<path d="M287.75 178.75C286.202 179.302 284.573 179.593 282.93 179.61C281.857 179.712 280.774 179.579 279.758 179.219C278.742 178.858 277.817 178.28 277.048 177.525C276.279 176.769 275.685 175.854 275.307 174.845C274.929 173.835 274.777 172.755 274.86 171.68C274.86 167 278.1 163.57 283.37 163.57C284.713 163.536 286.048 163.781 287.29 164.29L286.8 166C285.705 165.518 284.516 165.285 283.32 165.32C279.5 165.32 277 167.7 277 171.64C277 175.58 279.41 177.98 283.07 177.98C283.99 178.029 284.909 177.886 285.77 177.56V172.87H282.58V171.24H287.75V178.75Z" fill="white"/>
<path d="M325.45 178.93C324.137 179.475 322.721 179.73 321.3 179.68C316.87 179.68 313.54 176.88 313.54 171.68C313.477 170.583 313.646 169.485 314.035 168.458C314.425 167.43 315.026 166.496 315.801 165.717C316.576 164.938 317.506 164.33 318.531 163.934C319.556 163.539 320.653 163.363 321.75 163.42C323.031 163.368 324.306 163.607 325.48 164.12L324.99 165.78C323.994 165.334 322.912 165.112 321.82 165.13C318.13 165.13 315.68 167.48 315.68 171.61C315.68 175.46 317.9 177.93 321.68 177.93C322.818 177.948 323.946 177.723 324.99 177.27L325.45 178.93Z" fill="white"/>
<path d="M350.27 171.43C350.27 176.83 346.99 179.7 342.98 179.7C338.82 179.7 335.91 176.48 335.91 171.7C335.91 166.7 339.01 163.44 343.21 163.44C347.41 163.44 350.27 166.76 350.27 171.43ZM338.08 171.68C338.08 175.04 339.9 178.05 343.08 178.05C346.26 178.05 348.08 175.05 348.08 171.52C348.08 168.39 346.45 165.13 343.08 165.13C339.71 165.13 338.08 168.23 338.08 171.68Z" fill="white"/>
<path d="M375.49 172.54C375.38 170.35 375.24 167.72 375.26 165.76H375.19C374.65 167.6 374 169.56 373.19 171.76L370.41 179.38H368.87L366.33 171.9C365.59 169.68 364.96 167.65 364.51 165.79C364.46 167.79 364.34 170.38 364.2 172.79L363.78 179.53H361.85L362.94 163.81H365.53L368.21 171.41C368.87 173.35 369.4 175.07 369.8 176.7H369.87C370.27 175.12 370.87 173.39 371.53 171.41L374.32 163.81H376.91L377.91 179.53H375.91L375.49 172.54Z" fill="white"/>
<path d="M390.34 163.92C391.626 163.71 392.927 163.606 394.23 163.61C395.811 163.493 397.38 163.959 398.64 164.92C399.093 165.336 399.451 165.846 399.687 166.414C399.924 166.982 400.034 167.595 400.01 168.21C400.04 168.822 399.948 169.434 399.74 170.011C399.533 170.588 399.213 171.117 398.8 171.57C398.157 172.165 397.4 172.624 396.575 172.92C395.75 173.215 394.875 173.341 394 173.29C393.45 173.309 392.899 173.262 392.36 173.15V179.45H390.36L390.34 163.92ZM392.34 171.5C392.892 171.619 393.456 171.672 394.02 171.66C396.47 171.66 397.96 170.47 397.96 168.3C397.96 166.13 396.49 165.22 394.26 165.22C393.615 165.2 392.971 165.257 392.34 165.39V171.5Z" fill="white"/>
<path d="M412.66 174.5L411 179.45H408.9L414.24 163.73H416.69L422.05 179.45H419.88L418.2 174.5H412.66ZM417.81 172.92L416.27 168.39C415.92 167.39 415.69 166.44 415.46 165.53C415.23 166.46 414.97 167.42 414.67 168.37L413.13 172.92H417.81Z" fill="white"/>
<path d="M433.73 179.45V163.73H435.94L440.94 171.73C441.988 173.372 442.93 175.078 443.76 176.84H443.81C443.62 174.75 443.57 172.84 443.57 170.39V163.81H445.49V179.53H443.43L438.43 171.53C437.351 169.843 436.373 168.093 435.5 166.29H435.43C435.54 168.29 435.59 170.16 435.59 172.77V179.49L433.73 179.45Z" fill="white"/>
<path d="M461.74 179.45V172.78L456.74 163.73H459.05L461.26 168.07C461.87 169.26 462.33 170.21 462.82 171.31H462.87C463.31 170.31 463.87 169.26 464.46 168.07L466.72 163.73H469.03L463.76 172.73V179.43L461.74 179.45Z" fill="white"/>
</g>
<defs>
<clipPath id="clip0_267_2710">
<rect width="595.84" height="179.7" fill="white"/>
</clipPath>
</defs>
</svg>
