<svg width="105" height="105" viewBox="0 0 105 105" fill="none" xmlns="http://www.w3.org/2000/svg">
<path fill-rule="evenodd" clip-rule="evenodd" d="M59.1782 59.6818C59.9521 59.542 60.737 59.472 61.5234 59.4727C63.1772 59.4727 64.7596 59.7786 66.2173 60.3369L72.0169 52.0898L72.2384 52.2154C70.0883 49.8128 68.9016 46.7007 68.9062 43.4766C68.9062 36.2279 74.7826 30.3516 82.0312 30.3516C89.2799 30.3516 95.1562 36.2279 95.1562 43.4766C95.1562 50.7253 89.2799 56.6016 82.0312 56.6016C80.5252 56.6016 79.0781 56.3477 77.7308 55.8809L71.8614 64.5098C73.6716 66.8167 74.6532 69.6654 74.6484 72.5977C74.6484 79.8463 68.7721 85.7227 61.5234 85.7227C54.2747 85.7227 48.3984 79.8463 48.3984 72.5977C48.3984 68.5917 50.1933 65.0048 53.0225 62.5972L44.5061 45.666C43.6276 45.8475 42.7329 45.9385 41.8359 45.9375C40.7064 45.9386 39.5815 45.7938 38.4891 45.5068L32.4532 56.1422C34.9494 58.5313 36.5039 61.8967 36.5039 65.625C36.5039 72.8737 30.6276 78.75 23.3789 78.75C16.1302 78.75 10.2539 72.8737 10.2539 65.625C10.2539 58.3763 16.1302 52.5 23.3789 52.5C24.4679 52.5 25.5257 52.6325 26.5371 52.8823L32.6111 42.1485C30.2031 39.77 28.7109 36.4658 28.7109 32.8125C28.7109 25.5638 34.5872 19.6875 41.8359 19.6875C49.0846 19.6875 54.9609 25.5638 54.9609 32.8125C54.9609 36.7348 53.2403 40.2552 50.5132 42.6604L59.1782 59.6818ZM82.0312 50.0391C85.6558 50.0391 88.5938 47.1011 88.5938 43.4766C88.5938 39.852 85.6558 36.9141 82.0312 36.9141C78.4067 36.9141 75.4688 39.852 75.4688 43.4766C75.4688 47.1011 78.4067 50.0391 82.0312 50.0391ZM23.3789 72.1875C27.0035 72.1875 29.9414 69.2495 29.9414 65.625C29.9414 62.0005 27.0035 59.0625 23.3789 59.0625C19.7544 59.0625 16.8164 62.0005 16.8164 65.625C16.8164 69.2495 19.7544 72.1875 23.3789 72.1875ZM41.8359 39.375C45.4605 39.375 48.3984 36.437 48.3984 32.8125C48.3984 29.1879 45.4605 26.25 41.8359 26.25C38.2114 26.25 35.2734 29.1879 35.2734 32.8125C35.2734 36.437 38.2114 39.375 41.8359 39.375ZM61.5234 79.1602C65.148 79.1602 68.0859 76.2222 68.0859 72.5977C68.0859 68.9731 65.148 66.0352 61.5234 66.0352C57.8989 66.0352 54.9609 68.9731 54.9609 72.5977C54.9609 76.2222 57.8989 79.1602 61.5234 79.1602Z" fill="white"/>
</svg>
