<svg width="105" height="105" viewBox="0 0 105 105" fill="none" xmlns="http://www.w3.org/2000/svg">
<path d="M27.8249 37.9845L10.4055 52.5L27.8249 67.0154C28.0761 67.2213 28.2841 67.4749 28.4369 67.7616C28.5896 68.0482 28.6841 68.3623 28.7149 68.6857C28.7456 69.0091 28.7121 69.3353 28.6161 69.6457C28.5202 69.956 28.3638 70.2443 28.1559 70.4939C27.948 70.7434 27.6927 70.9494 27.4048 71.0999C27.117 71.2503 26.8021 71.3423 26.4785 71.3705C26.1549 71.3987 25.8289 71.3625 25.5194 71.2641C25.2098 71.1657 24.9228 71.0069 24.6749 70.797L4.98738 54.3908C4.71013 54.1598 4.48707 53.8707 4.33399 53.544C4.18091 53.2172 4.10156 52.8608 4.10156 52.5C4.10156 52.1391 4.18091 51.7827 4.33399 51.456C4.48707 51.1292 4.71013 50.8401 4.98738 50.6091L24.6749 34.2029C25.1771 33.7914 25.8215 33.5949 26.4679 33.6564C27.1142 33.7179 27.7101 34.0324 28.1256 34.5313C28.5412 35.0301 28.7428 35.673 28.6864 36.3198C28.6301 36.9667 28.3204 37.565 27.8249 37.9845ZM100.012 50.6091L80.3249 34.2029C80.077 33.993 79.79 33.8343 79.4804 33.7359C79.1708 33.6374 78.8448 33.6013 78.5212 33.6295C78.1976 33.6577 77.8828 33.7496 77.5949 33.9001C77.307 34.0505 77.0518 34.2565 76.8439 34.5061C76.636 34.7557 76.4796 35.0439 76.3836 35.3543C76.2877 35.6646 76.2541 35.9909 76.2849 36.3142C76.3157 36.6376 76.4101 36.9517 76.5629 37.2384C76.7157 37.525 76.9236 37.7786 77.1749 37.9845L94.5942 52.5L77.1749 67.0154C76.9236 67.2213 76.7157 67.4749 76.5629 67.7616C76.4101 68.0482 76.3157 68.3623 76.2849 68.6857C76.2541 69.0091 76.2877 69.3353 76.3836 69.6457C76.4796 69.956 76.636 70.2443 76.8439 70.4939C77.0518 70.7434 77.307 70.9494 77.5949 71.0999C77.8828 71.2503 78.1976 71.3423 78.5212 71.3705C78.8448 71.3987 79.1708 71.3625 79.4804 71.2641C79.79 71.1657 80.077 71.0069 80.3249 70.797L100.012 54.3908C100.29 54.1598 100.513 53.8707 100.666 53.544C100.819 53.2172 100.898 52.8608 100.898 52.5C100.898 52.1391 100.819 51.7827 100.666 51.456C100.513 51.1292 100.29 50.8401 100.012 50.6091ZM66.4657 14.1052C66.1614 13.995 65.8383 13.9458 65.515 13.9606C65.1917 13.9753 64.8745 14.0537 64.5815 14.1913C64.2885 14.3288 64.0255 14.5228 63.8076 14.7621C63.5897 15.0014 63.4212 15.2814 63.3116 15.5859L37.0616 87.7734C36.8458 88.387 36.8818 89.0611 37.1615 89.6483C37.4413 90.2354 37.9421 90.688 38.5546 90.907C38.818 91.001 39.0952 91.0509 39.3749 91.0547C39.8801 91.0547 40.3732 90.8993 40.7871 90.6095C41.2009 90.3196 41.5155 89.9094 41.6882 89.4345L67.9382 17.247C68.0486 16.9433 68.0982 16.6207 68.084 16.2978C68.0698 15.9748 67.9921 15.6579 67.8553 15.365C67.7186 15.0721 67.5255 14.809 67.287 14.5907C67.0486 14.3725 66.7695 14.2033 66.4657 14.0929V14.1052Z" fill="white"/>
</svg>
