<svg width="105" height="105" viewBox="0 0 105 105" fill="none" xmlns="http://www.w3.org/2000/svg">
<path d="M65.0604 74.1439L74.1474 89.8834H68.0929L59.0059 74.1439H46.026L36.9391 89.8834H30.8846L39.9716 74.1439H23.6444C22.9487 74.1439 22.2814 73.8675 21.7895 73.3755C21.2975 72.8836 21.0211 72.2164 21.0211 71.5206V26.9252H15.7746C15.0789 26.9252 14.4117 26.6488 13.9197 26.1569C13.4277 25.6649 13.1514 24.9977 13.1514 24.302C13.1514 23.6062 13.4277 22.939 13.9197 22.447C14.4117 21.9551 15.0789 21.6787 15.7746 21.6787H89.2259C89.9216 21.6787 90.5888 21.9551 91.0808 22.447C91.5727 22.939 91.8491 23.6062 91.8491 24.302C91.8491 24.9977 91.5727 25.6649 91.0808 26.1569C90.5888 26.6488 89.9216 26.9252 89.2259 26.9252H83.9793V71.5206C83.9793 72.2164 83.703 72.8836 83.211 73.3755C82.7191 73.8675 82.0518 74.1439 81.3561 74.1439H65.0604ZM78.7328 26.9252H26.2677V68.8974H78.7328V26.9252ZM39.384 47.9113C40.0797 47.9113 40.7469 48.1877 41.2389 48.6796C41.7308 49.1716 42.0072 49.8388 42.0072 50.5346V55.7811C42.0072 56.4768 41.7308 57.144 41.2389 57.636C40.7469 58.1279 40.0797 58.4043 39.384 58.4043C38.6882 58.4043 38.021 58.1279 37.529 57.636C37.0371 57.144 36.7607 56.4768 36.7607 55.7811V50.5346C36.7607 49.8388 37.0371 49.1716 37.529 48.6796C38.021 48.1877 38.6882 47.9113 39.384 47.9113ZM52.5002 42.6648C53.196 42.6648 53.8632 42.9412 54.3552 43.4331C54.8471 43.9251 55.1235 44.5923 55.1235 45.288V55.7811C55.1235 56.4768 54.8471 57.144 54.3552 57.636C53.8632 58.1279 53.196 58.4043 52.5002 58.4043C51.8045 58.4043 51.1373 58.1279 50.6453 57.636C50.1534 57.144 49.877 56.4768 49.877 55.7811V45.288C49.877 44.5923 50.1534 43.9251 50.6453 43.4331C51.1373 42.9412 51.8045 42.6648 52.5002 42.6648ZM65.6165 37.4183C66.3123 37.4183 66.9795 37.6946 67.4715 38.1866C67.9634 38.6786 68.2398 39.3458 68.2398 40.0415V55.7811C68.2398 56.4768 67.9634 57.144 67.4715 57.636C66.9795 58.1279 66.3123 58.4043 65.6165 58.4043C64.9208 58.4043 64.2536 58.1279 63.7616 57.636C63.2697 57.144 62.9933 56.4768 62.9933 55.7811V40.0415C62.9933 39.3458 63.2697 38.6786 63.7616 38.1866C64.2536 37.6946 64.9208 37.4183 65.6165 37.4183Z" fill="white"/>
</svg>
