<svg width="24" height="24" viewBox="0 0 24 24" fill="none" xmlns="http://www.w3.org/2000/svg">
<path d="M21.2623 0.177734C21.9636 0.177734 22.6362 0.456329 23.1321 0.95223C23.628 1.44813 23.9066 2.12072 23.9066 2.82203V21.3321C23.9066 22.0334 23.628 22.706 23.1321 23.2019C22.6362 23.6978 21.9636 23.9764 21.2623 23.9764H2.7522C2.05089 23.9764 1.37831 23.6978 0.882406 23.2019C0.386505 22.706 0.10791 22.0334 0.10791 21.3321V2.82203C0.10791 2.12072 0.386505 1.44813 0.882406 0.95223C1.37831 0.456329 2.05089 0.177734 2.7522 0.177734H21.2623ZM20.6012 20.671V13.6636C20.6012 12.5205 20.1471 11.4242 19.3388 10.6159C18.5304 9.80754 17.4341 9.35343 16.291 9.35343C15.1672 9.35343 13.8582 10.041 13.2236 11.0722V9.60464H9.53482V20.671H13.2236V14.1528C13.2236 13.1348 14.0433 12.3018 15.0614 12.3018C15.5523 12.3018 16.0231 12.4968 16.3703 12.844C16.7174 13.1911 16.9124 13.6619 16.9124 14.1528V20.671H20.6012ZM5.23784 7.52887C5.82694 7.52887 6.39191 7.29485 6.80847 6.8783C7.22503 6.46174 7.45905 5.89677 7.45905 5.30767C7.45905 4.07807 6.46744 3.07324 5.23784 3.07324C4.64523 3.07324 4.0769 3.30865 3.65786 3.72769C3.23882 4.14672 3.00341 4.71506 3.00341 5.30767C3.00341 6.53726 4.00824 7.52887 5.23784 7.52887ZM7.07563 20.671V9.60464H3.41328V20.671H7.07563Z" fill="white"/>
</svg>
