<svg width="127" height="46" viewBox="0 0 127 46" fill="none" xmlns="http://www.w3.org/2000/svg">
<path d="M103.387 45.9806C116.094 45.9806 126.367 35.7069 126.367 23C126.367 10.2932 116.094 0.0195312 103.387 0.0195312C90.6798 0.0195312 80.4062 10.2932 80.4062 23C80.4062 35.7069 90.6798 45.9806 103.387 45.9806ZM103.387 2.72312C114.607 2.72312 123.664 11.7801 123.664 23C123.664 34.22 114.607 43.277 103.387 43.277C92.1668 43.277 83.1097 34.22 83.1097 23C83.1097 11.7801 92.1668 2.72312 103.387 2.72312Z" fill="white"/>
<path d="M102.981 36.1125L116.093 23.0001L102.981 9.8877L101.088 11.7802L112.308 23.0001L101.088 34.22L102.981 36.1125Z" fill="white"/>
<path d="M114.201 21.6484H0.632523V24.352H114.201V21.6484Z" fill="white"/>
</svg>
