<svg width="105" height="105" viewBox="0 0 105 105" fill="none" xmlns="http://www.w3.org/2000/svg">
<path d="M56.5086 15.7494C55.4457 14.6868 54.0042 14.0898 52.5012 14.0898C50.9981 14.0898 49.5566 14.6868 48.4937 15.7494L10.8165 53.4209C10.553 53.6845 10.344 53.9973 10.2014 54.3416C10.0588 54.6859 9.98535 55.0549 9.98535 55.4275C9.98535 55.8002 10.0588 56.1692 10.2014 56.5135C10.344 56.8578 10.553 57.1706 10.8165 57.4341C11.3487 57.9663 12.0705 58.2653 12.8231 58.2653C13.1957 58.2653 13.5647 58.1919 13.909 58.0492C14.2533 57.9066 14.5662 57.6976 14.8297 57.4341L18.4914 53.7667V83.769C18.4914 86.024 19.3872 88.1866 20.9817 89.7812C22.5762 91.3757 24.7388 92.2715 26.9938 92.2715H78.0085C80.2635 92.2715 82.4261 91.3757 84.0206 89.7812C85.6152 88.1866 86.5109 86.024 86.5109 83.769V53.7667L90.1727 57.4341C90.7048 57.9663 91.4266 58.2653 92.1792 58.2653C92.9319 58.2653 93.6536 57.9663 94.1858 57.4341C94.718 56.9019 95.017 56.1801 95.017 55.4275C95.017 54.6749 94.718 53.9531 94.1858 53.4209L80.8427 40.0834V21.4177C80.8427 20.6661 80.5441 19.9452 80.0126 19.4137C79.481 18.8822 78.7602 18.5836 78.0085 18.5836H72.3402C71.5885 18.5836 70.8677 18.8822 70.3362 19.4137C69.8047 19.9452 69.5061 20.6661 69.5061 21.4177V28.7468L56.5086 15.7494ZM80.8427 48.0984V83.769C80.8427 84.5207 80.5441 85.2416 80.0126 85.7731C79.481 86.3046 78.7602 86.6032 78.0085 86.6032H26.9938C26.2422 86.6032 25.5213 86.3046 24.9898 85.7731C24.4583 85.2416 24.1597 84.5207 24.1597 83.769V48.0984L52.5012 19.7569L80.8427 48.0984Z" fill="white"/>
<path d="M40.5591 54.6815L32.129 61.7063L40.5591 68.7311C40.6807 68.8308 40.7814 68.9535 40.8553 69.0922C40.9292 69.231 40.975 69.383 40.9899 69.5395C41.0048 69.696 40.9885 69.8539 40.9421 70.004C40.8957 70.1542 40.8199 70.2937 40.7193 70.4145C40.6187 70.5353 40.4952 70.635 40.3559 70.7078C40.2165 70.7806 40.0642 70.8251 39.9076 70.8388C39.751 70.8524 39.5932 70.8349 39.4434 70.7873C39.2936 70.7397 39.1547 70.6628 39.0347 70.5613L29.5068 62.6214C29.3726 62.5096 29.2647 62.3697 29.1906 62.2115C29.1165 62.0534 29.0781 61.8809 29.0781 61.7063C29.0781 61.5317 29.1165 61.3592 29.1906 61.201C29.2647 61.0429 29.3726 60.903 29.5068 60.7912L39.0347 52.8513C39.2777 52.6522 39.5896 52.5571 39.9024 52.5869C40.2152 52.6166 40.5036 52.7688 40.7047 53.0102C40.9058 53.2517 41.0034 53.5628 40.9761 53.8758C40.9488 54.1889 40.799 54.4784 40.5591 54.6815ZM75.4947 60.7912L65.9668 52.8513C65.8468 52.7498 65.7079 52.6729 65.5581 52.6253C65.4083 52.5777 65.2505 52.5602 65.0939 52.5738C64.9373 52.5875 64.7849 52.632 64.6456 52.7048C64.5063 52.7776 64.3828 52.8773 64.2822 52.9981C64.1815 53.1188 64.1058 53.2584 64.0594 53.4085C64.013 53.5587 63.9967 53.7166 64.0116 53.8731C64.0265 54.0296 64.0722 54.1816 64.1462 54.3204C64.2201 54.4591 64.3208 54.5818 64.4423 54.6815L72.8725 61.7063L64.4423 68.7311C64.3208 68.8308 64.2201 68.9535 64.1462 69.0922C64.0722 69.231 64.0265 69.383 64.0116 69.5395C63.9967 69.696 64.013 69.8539 64.0594 70.004C64.1058 70.1542 64.1815 70.2937 64.2822 70.4145C64.3828 70.5353 64.5063 70.635 64.6456 70.7078C64.7849 70.7806 64.9373 70.8251 65.0939 70.8388C65.2505 70.8524 65.4083 70.8349 65.5581 70.7873C65.7079 70.7397 65.8468 70.6628 65.9668 70.5613L75.4947 62.6214C75.6288 62.5096 75.7368 62.3697 75.8109 62.2115C75.885 62.0534 75.9234 61.8809 75.9234 61.7063C75.9234 61.5317 75.885 61.3592 75.8109 61.201C75.7368 61.0429 75.6288 60.903 75.4947 60.7912ZM59.2596 43.125C59.1123 43.0716 58.956 43.0478 58.7995 43.055C58.643 43.0621 58.4895 43.1 58.3477 43.1666C58.2059 43.2332 58.0786 43.327 57.9732 43.4429C57.8677 43.5587 57.7862 43.6942 57.7331 43.8415L45.0293 78.7771C44.9249 79.074 44.9423 79.4002 45.0777 79.6844C45.2131 79.9686 45.4554 80.1876 45.7518 80.2936C45.8793 80.3391 46.0135 80.3632 46.1488 80.365C46.3934 80.3651 46.632 80.2899 46.8323 80.1496C47.0326 80.0093 47.1848 79.8108 47.2684 79.581L59.9722 44.6455C60.0256 44.4984 60.0496 44.3423 60.0427 44.186C60.0359 44.0298 59.9983 43.8764 59.9321 43.7346C59.8659 43.5929 59.7725 43.4655 59.6571 43.3599C59.5417 43.2543 59.4066 43.1724 59.2596 43.119V43.125Z" fill="white"/>
</svg>
