<svg width="25" height="25" viewBox="0 0 25 25" fill="none" xmlns="http://www.w3.org/2000/svg">
<path d="M20.45 21.6895C18.3667 21.6895 16.3083 21.2355 14.275 20.3275C12.2417 19.4195 10.3917 18.1318 8.725 16.4645C7.05833 14.7971 5.771 12.9471 4.863 10.9145C3.955 8.88179 3.50067 6.82345 3.5 4.73945C3.5 4.43945 3.6 4.18945 3.8 3.98945C4 3.78945 4.25 3.68945 4.55 3.68945H8.6C8.83333 3.68945 9.04167 3.76879 9.225 3.92745C9.40833 4.08612 9.51667 4.27345 9.55 4.48945L10.2 7.98945C10.2333 8.25612 10.225 8.48112 10.175 8.66445C10.125 8.84779 10.0333 9.00612 9.9 9.13945L7.475 11.5895C7.80833 12.2061 8.204 12.8018 8.662 13.3765C9.12 13.9511 9.62433 14.5055 10.175 15.0395C10.6917 15.5561 11.2333 16.0355 11.8 16.4775C12.3667 16.9195 12.9667 17.3235 13.6 17.6895L15.95 15.3395C16.1 15.1895 16.296 15.0771 16.538 15.0025C16.78 14.9278 17.0173 14.9068 17.25 14.9395L20.7 15.6395C20.9333 15.7061 21.125 15.8271 21.275 16.0025C21.425 16.1778 21.5 16.3735 21.5 16.5895V20.6395C21.5 20.9395 21.4 21.1895 21.2 21.3895C21 21.5895 20.75 21.6895 20.45 21.6895ZM6.525 9.68945L8.175 8.03945L7.75 5.68945H5.525C5.60833 6.37279 5.725 7.04779 5.875 7.71445C6.025 8.38112 6.24167 9.03945 6.525 9.68945ZM15.475 18.6395C16.125 18.9228 16.7877 19.1478 17.463 19.3145C18.1383 19.4811 18.8173 19.5895 19.5 19.6395V17.4395L17.15 16.9645L15.475 18.6395Z" fill="white"/>
</svg>
