<svg width="105" height="105" viewBox="0 0 105 105" fill="none" xmlns="http://www.w3.org/2000/svg">
<path d="M52.5 87.0623C59.5729 84.8748 65.4792 80.5552 70.2187 74.1035C74.9583 67.6518 77.7292 60.4506 78.5313 52.4998H52.5V18.1298L28.0175 27.2166C27.4546 27.4412 27.02 27.7781 26.7137 28.2273C26.4046 28.6764 26.25 29.181 26.25 29.741V50.4479C26.25 51.0137 26.3229 51.6977 26.4688 52.4998H52.5V87.0623ZM52.5 91.1835C52.1033 91.1835 51.6848 91.1471 51.2444 91.0741C50.804 91.0012 50.3956 90.8919 50.0194 90.746C41.4065 87.4648 34.5625 81.8998 29.4875 74.051C24.4125 66.2023 21.875 57.706 21.875 48.5623V29.8241C21.875 28.3366 22.3052 26.9906 23.1656 25.786C24.026 24.5814 25.1271 23.7064 26.4688 23.161L50.0281 14.411C50.8798 14.1018 51.7038 13.9473 52.5 13.9473C53.2962 13.9473 54.1217 14.1018 54.9762 14.411L78.5313 23.161C79.8729 23.7064 80.974 24.5814 81.8344 25.786C82.6948 26.9906 83.125 28.3366 83.125 29.8241V48.5623C83.125 57.706 80.5875 66.2023 75.5125 74.051C70.4375 81.8998 63.5935 87.4648 54.9806 90.746C54.6015 90.8919 54.1931 91.0012 53.7556 91.0741C53.3181 91.1471 52.8996 91.1835 52.5 91.1835Z" fill="white"/>
</svg>
