<svg width="20" height="20" viewBox="0 0 20 20" fill="none" xmlns="http://www.w3.org/2000/svg">
<path d="M18.3388 7.31427L4.33878 0.314269C3.78627 0.0392781 3.1624 -0.0586206 2.55222 0.0339206C1.94204 0.126462 1.37524 0.404939 0.929114 0.831385C0.482986 1.25783 0.179235 1.81149 0.0592753 2.41688C-0.0606847 3.02227 0.00898391 3.64992 0.258783 4.21427L2.65878 9.58427C2.71324 9.7141 2.74129 9.85348 2.74129 9.99427C2.74129 10.1351 2.71324 10.2744 2.65878 10.4043L0.258783 15.7743C0.0554827 16.231 -0.0304617 16.7313 0.00875966 17.2296C0.0479811 17.728 0.211125 18.2087 0.483364 18.628C0.755604 19.0473 1.12831 19.3919 1.56761 19.6305C2.0069 19.8691 2.49887 19.9941 2.99878 19.9943C3.46701 19.9896 3.92827 19.8803 4.34878 19.6743L18.3488 12.6743C18.8454 12.4245 19.2628 12.0416 19.5545 11.5683C19.8461 11.0951 20.0006 10.5502 20.0006 9.99427C20.0006 9.43838 19.8461 8.89342 19.5545 8.42019C19.2628 7.94696 18.8454 7.56408 18.3488 7.31427H18.3388ZM17.4488 10.8843L3.44878 17.8843C3.26494 17.9725 3.05851 18.0025 2.85717 17.9701C2.65582 17.9377 2.46919 17.8446 2.3223 17.7031C2.1754 17.5617 2.07526 17.3787 2.03531 17.1787C1.99536 16.9787 2.01751 16.7713 2.09878 16.5843L4.48878 11.2143C4.51972 11.1426 4.54643 11.0691 4.56878 10.9943H11.4588C11.724 10.9943 11.9784 10.8889 12.1659 10.7014C12.3534 10.5138 12.4588 10.2595 12.4588 9.99427C12.4588 9.72905 12.3534 9.4747 12.1659 9.28716C11.9784 9.09963 11.724 8.99427 11.4588 8.99427H4.56878C4.54643 8.91944 4.51972 8.84598 4.48878 8.77427L2.09878 3.40427C2.01751 3.21723 1.99536 3.00982 2.03531 2.80984C2.07526 2.60986 2.1754 2.42687 2.3223 2.28542C2.46919 2.14396 2.65582 2.0508 2.85717 2.01842C3.05851 1.98604 3.26494 2.016 3.44878 2.10427L17.4488 9.10427C17.6126 9.18819 17.75 9.31568 17.846 9.47271C17.942 9.62975 17.9928 9.81022 17.9928 9.99427C17.9928 10.1783 17.942 10.3588 17.846 10.5158C17.75 10.6729 17.6126 10.8004 17.4488 10.8843Z" fill="white"/>
</svg>
