<svg width="39" height="39" viewBox="0 0 39 39" fill="none" xmlns="http://www.w3.org/2000/svg">
<path fill-rule="evenodd" clip-rule="evenodd" d="M19.4866 34.1021C21.4058 34.1021 23.3063 33.724 25.0795 32.9896C26.8527 32.2551 28.4638 31.1785 29.8209 29.8214C31.1781 28.4643 32.2546 26.8531 32.9891 25.08C33.7235 23.3068 34.1016 21.4063 34.1016 19.4871C34.1016 17.5678 33.7235 15.6673 32.9891 13.8941C32.2546 12.121 31.1781 10.5098 29.8209 9.1527C28.4638 7.79557 26.8527 6.71904 25.0795 5.98457C23.3063 5.2501 21.4058 4.87207 19.4866 4.87207C15.6104 4.87207 11.8931 6.41186 9.15221 9.1527C6.41137 11.8935 4.87158 15.6109 4.87158 19.4871C4.87158 23.3632 6.41137 27.0806 9.15221 29.8214C11.8931 32.5623 15.6104 34.1021 19.4866 34.1021ZM19.1098 25.398L27.2293 15.6547L24.735 13.5761L17.7523 21.9537L14.1391 18.339L11.8429 20.6351L16.7146 25.5068L17.9715 26.7637L19.1098 25.398Z" fill="white"/>
</svg>
